<svg xmlns="http://www.w3.org/2000/svg" width="24" height="24" viewBox="0 0 465 465">
  <circle cx="232.5" cy="232.5" r="232.5" style="fill: #6c2bd9"/>
  <g>
    <path d="M771.63808,671.78162h0a29.44993,29.44993,0,0,1-40.11062-10.74776l-68.6161-118.84735a29.363,29.363,0,0,1,50.85838-29.36286L782.38585,631.67A29.45081,29.45081,0,0,1,771.63808,671.78162Z" transform="translate(-579 -354)" style="fill: #fff"/>
    <path d="M879.38035,671.78162h0a29.44993,29.44993,0,0,1-40.11062-10.74776L770.65362,542.18651A29.363,29.363,0,0,1,821.512,512.82365L890.12811,631.67A29.4508,29.4508,0,0,1,879.38035,671.78162Z" transform="translate(-579 -354)" style="fill: #fff"/>
    <path d="M948.37565,552.93427h0a29.36281,29.36281,0,1,1,10.74776-40.11062A29.44809,29.44809,0,0,1,948.37565,552.93427Z" transform="translate(-579 -354)" style="fill: #fff"/>
  </g>
</svg>
