<svg xmlns="http://www.w3.org/2000/svg" width="465" height="465" viewBox="0 0 465 465">
  <title>webidacta-logo-background</title>
  <g>
    <circle cx="232.5" cy="232.5" r="232.5" style="fill: #f1f5f9"/>
    <g>
      <path d="M919.63808,625.78162h0a29.44993,29.44993,0,0,1-40.11062-10.74776l-68.6161-118.84735a29.363,29.363,0,0,1,50.85838-29.36286L930.38585,585.67A29.45081,29.45081,0,0,1,919.63808,625.78162Z" transform="translate(-727 -308)" style="fill: #fbfdfe"/>
      <path d="M1027.38035,625.78162h0a29.44993,29.44993,0,0,1-40.11062-10.74776L918.65362,496.18651A29.363,29.363,0,0,1,969.512,466.82365L1038.12811,585.67A29.4508,29.4508,0,0,1,1027.38035,625.78162Z" transform="translate(-727 -308)" style="fill: #fbfdfe"/>
      <path d="M1096.37565,506.93427h0a29.36281,29.36281,0,1,1,10.74776-40.11062A29.44809,29.44809,0,0,1,1096.37565,506.93427Z" transform="translate(-727 -308)" style="fill: #fbfdfe"/>
    </g>
  </g>
</svg>
